<svg aria-roledescription="er" viewBox="0 0 470.81341552734375 298" style="max-width: 470.813px; background-color: white;" xmlns:xlink="http://www.w3.org/1999/xlink" xmlns="http://www.w3.org/2000/svg" width="100%" id="mermaid-0"><style>#mermaid-0{font-family:"trebuchet ms",verdana,arial,sans-serif;font-size:16px;fill:#000000;}#mermaid-0 .error-icon{fill:#552222;}#mermaid-0 .error-text{fill:#552222;stroke:#552222;}#mermaid-0 .edge-thickness-normal{stroke-width:2px;}#mermaid-0 .edge-thickness-thick{stroke-width:3.5px;}#mermaid-0 .edge-pattern-solid{stroke-dasharray:0;}#mermaid-0 .edge-pattern-dashed{stroke-dasharray:3;}#mermaid-0 .edge-pattern-dotted{stroke-dasharray:2;}#mermaid-0 .marker{fill:#000000;stroke:#000000;}#mermaid-0 .marker.cross{stroke:#000000;}#mermaid-0 svg{font-family:"trebuchet ms",verdana,arial,sans-serif;font-size:16px;}#mermaid-0 .entityBox{fill:#cde498;stroke:#13540c;}#mermaid-0 .attributeBoxOdd{fill:#ffffff;stroke:#13540c;}#mermaid-0 .attributeBoxEven{fill:#f2f2f2;stroke:#13540c;}#mermaid-0 .relationshipLabelBox{fill:hsl(78.1578947368, 58.4615384615%, 84.5098039216%);opacity:0.7;background-color:hsl(78.1578947368, 58.4615384615%, 84.5098039216%);}#mermaid-0 .relationshipLabelBox rect{opacity:0.5;}#mermaid-0 .relationshipLine{stroke:#000000;}#mermaid-0 .entityTitleText{text-anchor:middle;font-size:18px;fill:#000000;}#mermaid-0 :root{--mermaid-font-family:"trebuchet ms",verdana,arial,sans-serif;}</style><g/><defs><marker orient="auto" markerHeight="18" markerWidth="18" refY="9" refX="0" id="ONLY_ONE_START"><path d="M9,0 L9,18 M15,0 L15,18" fill="none" stroke="gray"/></marker></defs><defs><marker orient="auto" markerHeight="18" markerWidth="18" refY="9" refX="18" id="ONLY_ONE_END"><path d="M3,0 L3,18 M9,0 L9,18" fill="none" stroke="gray"/></marker></defs><defs><marker orient="auto" markerHeight="18" markerWidth="30" refY="9" refX="0" id="ZERO_OR_ONE_START"><circle r="6" cy="9" cx="21" fill="white" stroke="gray"/><path d="M9,0 L9,18" fill="none" stroke="gray"/></marker></defs><defs><marker orient="auto" markerHeight="18" markerWidth="30" refY="9" refX="30" id="ZERO_OR_ONE_END"><circle r="6" cy="9" cx="9" fill="white" stroke="gray"/><path d="M21,0 L21,18" fill="none" stroke="gray"/></marker></defs><defs><marker orient="auto" markerHeight="36" markerWidth="45" refY="18" refX="18" id="ONE_OR_MORE_START"><path d="M0,18 Q 18,0 36,18 Q 18,36 0,18 M42,9 L42,27" fill="none" stroke="gray"/></marker></defs><defs><marker orient="auto" markerHeight="36" markerWidth="45" refY="18" refX="27" id="ONE_OR_MORE_END"><path d="M3,9 L3,27 M9,18 Q27,0 45,18 Q27,36 9,18" fill="none" stroke="gray"/></marker></defs><defs><marker orient="auto" markerHeight="36" markerWidth="57" refY="18" refX="18" id="ZERO_OR_MORE_START"><circle r="6" cy="18" cx="48" fill="white" stroke="gray"/><path d="M0,18 Q18,0 36,18 Q18,36 0,18" fill="none" stroke="gray"/></marker></defs><defs><marker orient="auto" markerHeight="36" markerWidth="57" refY="18" refX="39" id="ZERO_OR_MORE_END"><circle r="6" cy="18" cx="9" fill="white" stroke="gray"/><path d="M21,18 Q39,0 57,18 Q39,36 21,18" fill="none" stroke="gray"/></marker></defs><path style="stroke: gray; fill: none;" marker-start="url(#ZERO_OR_MORE_START)" marker-end="url(#ONLY_ONE_END)" d="M81.146484375,88L81.146484375,96.33333333333333C81.146484375,104.66666666666667,81.146484375,121.33333333333333,85.5324492872807,138C89.91841419956141,154.66666666666666,98.69034402412281,171.33333333333334,103.0763089364035,179.66666666666666L107.4622738486842,188" class="er relationshipLine"/><path style="stroke: gray; fill: none;" marker-start="url(#ZERO_OR_MORE_START)" marker-end="url(#ONLY_ONE_END)" d="M361.06936718168714,77L367.1209544832744,87.16666666666667C373.1725417848617,97.33333333333333,385.2757163880363,117.66666666666667,391.32730368962365,138C397.37889099121094,158.33333333333334,397.37889099121094,178.66666666666666,397.37889099121094,188.83333333333334L397.37889099121094,199" class="er relationshipLine"/><path style="stroke: gray; fill: none;" marker-start="url(#ZERO_OR_MORE_START)" marker-end="url(#ONLY_ONE_END)" d="M317.0793578738258,77L303.6860859886048,87.16666666666667C290.2928141033839,97.33333333333333,263.50627033294194,117.66666666666667,240.85218772951922,136.16666666666666C218.1981051260965,154.66666666666666,199.676483689693,171.33333333333334,190.41567297149126,179.66666666666666L181.15486225328948,188" class="er relationshipLine"/><g transform="translate(63.26268005371094,188 )" id="entity-habits-b7727f6b-7814-4d51-9eba-32322155ccf8"><rect height="90" width="135.76760864257812" y="0" x="0" class="er entityBox"/><text style="dominant-baseline: middle; text-anchor: middle; font-size: 12px;" transform="translate(67.88380432128906,12)" y="0" x="0" id="text-entity-habits-b7727f6b-7814-4d51-9eba-32322155ccf8" class="er entityLabel">habits</text><rect height="22" width="54.095550537109375" y="24" x="0" class="er attributeBoxOdd"/><text style="dominant-baseline: middle; font-size: 10.2px;" transform="translate(5,35)" y="0" x="0" id="text-entity-habits-b7727f6b-7814-4d51-9eba-32322155ccf8-attr-1-type" class="er entityLabel">String</text><rect height="22" width="59.984375" y="24" x="54.095550537109375" class="er attributeBoxOdd"/><text style="dominant-baseline: middle; font-size: 10.2px;" transform="translate(59.095550537109375,35)" y="0" x="0" id="text-entity-habits-b7727f6b-7814-4d51-9eba-32322155ccf8-attr-1-name" class="er entityLabel">id</text><rect height="22" width="21.68768310546875" y="24" x="114.07992553710938" class="er attributeBoxOdd"/><text style="dominant-baseline: middle; font-size: 10.2px;" transform="translate(119.07992553710938,35)" y="0" x="0" id="text-entity-habits-b7727f6b-7814-4d51-9eba-32322155ccf8-attr-1-key" class="er entityLabel">PK</text><rect height="22" width="54.095550537109375" y="46" x="0" class="er attributeBoxEven"/><text style="dominant-baseline: middle; font-size: 10.2px;" transform="translate(5,57)" y="0" x="0" id="text-entity-habits-b7727f6b-7814-4d51-9eba-32322155ccf8-attr-2-type" class="er entityLabel">String</text><rect height="22" width="59.984375" y="46" x="54.095550537109375" class="er attributeBoxEven"/><text style="dominant-baseline: middle; font-size: 10.2px;" transform="translate(59.095550537109375,57)" y="0" x="0" id="text-entity-habits-b7727f6b-7814-4d51-9eba-32322155ccf8-attr-2-name" class="er entityLabel">title</text><rect height="22" width="21.68768310546875" y="46" x="114.07992553710938" class="er attributeBoxEven"/><text style="dominant-baseline: middle; font-size: 10.2px;" transform="translate(119.07992553710938,57)" y="0" x="0" id="text-entity-habits-b7727f6b-7814-4d51-9eba-32322155ccf8-attr-2-key" class="er entityLabel"/><rect height="22" width="54.095550537109375" y="68" x="0" class="er attributeBoxOdd"/><text style="dominant-baseline: middle; font-size: 10.2px;" transform="translate(5,79)" y="0" x="0" id="text-entity-habits-b7727f6b-7814-4d51-9eba-32322155ccf8-attr-3-type" class="er entityLabel">DateTime</text><rect height="22" width="59.984375" y="68" x="54.095550537109375" class="er attributeBoxOdd"/><text style="dominant-baseline: middle; font-size: 10.2px;" transform="translate(59.095550537109375,79)" y="0" x="0" id="text-entity-habits-b7727f6b-7814-4d51-9eba-32322155ccf8-attr-3-name" class="er entityLabel">created_at</text><rect height="22" width="21.68768310546875" y="68" x="114.07992553710938" class="er attributeBoxOdd"/><text style="dominant-baseline: middle; font-size: 10.2px;" transform="translate(119.07992553710938,79)" y="0" x="0" id="text-entity-habits-b7727f6b-7814-4d51-9eba-32322155ccf8-attr-3-key" class="er entityLabel"/></g><g transform="translate(20,20 )" id="entity-habitweekdays-922ce14f-f564-4a34-9a8d-52159fdb495f"><rect height="68" width="122.29296875" y="0" x="0" class="er entityBox"/><text style="dominant-baseline: middle; text-anchor: middle; font-size: 12px;" transform="translate(61.146484375,12)" y="0" x="0" id="text-entity-habitweekdays-922ce14f-f564-4a34-9a8d-52159fdb495f" class="er entityLabel">habit_week_days</text><rect height="22" width="39.45697021484375" y="24" x="0" class="er attributeBoxOdd"/><text style="dominant-baseline: middle; font-size: 10.2px;" transform="translate(5,35)" y="0" x="0" id="text-entity-habitweekdays-922ce14f-f564-4a34-9a8d-52159fdb495f-attr-1-type" class="er entityLabel">String</text><rect height="22" width="58.22259521484375" y="24" x="39.45697021484375" class="er attributeBoxOdd"/><text style="dominant-baseline: middle; font-size: 10.2px;" transform="translate(44.45697021484375,35)" y="0" x="0" id="text-entity-habitweekdays-922ce14f-f564-4a34-9a8d-52159fdb495f-attr-1-name" class="er entityLabel">id</text><rect height="22" width="24.6134033203125" y="24" x="97.6795654296875" class="er attributeBoxOdd"/><text style="dominant-baseline: middle; font-size: 10.2px;" transform="translate(102.6795654296875,35)" y="0" x="0" id="text-entity-habitweekdays-922ce14f-f564-4a34-9a8d-52159fdb495f-attr-1-key" class="er entityLabel">PK</text><rect height="22" width="39.45697021484375" y="46" x="0" class="er attributeBoxEven"/><text style="dominant-baseline: middle; font-size: 10.2px;" transform="translate(5,57)" y="0" x="0" id="text-entity-habitweekdays-922ce14f-f564-4a34-9a8d-52159fdb495f-attr-2-type" class="er entityLabel">Int</text><rect height="22" width="58.22259521484375" y="46" x="39.45697021484375" class="er attributeBoxEven"/><text style="dominant-baseline: middle; font-size: 10.2px;" transform="translate(44.45697021484375,57)" y="0" x="0" id="text-entity-habitweekdays-922ce14f-f564-4a34-9a8d-52159fdb495f-attr-2-name" class="er entityLabel">week_day</text><rect height="22" width="24.6134033203125" y="46" x="97.6795654296875" class="er attributeBoxEven"/><text style="dominant-baseline: middle; font-size: 10.2px;" transform="translate(102.6795654296875,57)" y="0" x="0" id="text-entity-habitweekdays-922ce14f-f564-4a34-9a8d-52159fdb495f-attr-2-key" class="er entityLabel"/></g><g transform="translate(343.9443664550781,199 )" id="entity-days-fed1db31-4187-46e6-bff5-e1c4a9b82c2d"><rect height="68" width="106.86904907226562" y="0" x="0" class="er entityBox"/><text style="dominant-baseline: middle; text-anchor: middle; font-size: 12px;" transform="translate(53.43452453613281,12)" y="0" x="0" id="text-entity-days-fed1db31-4187-46e6-bff5-e1c4a9b82c2d" class="er entityLabel">days</text><rect height="22" width="54.095550537109375" y="24" x="0" class="er attributeBoxOdd"/><text style="dominant-baseline: middle; font-size: 10.2px;" transform="translate(5,35)" y="0" x="0" id="text-entity-days-fed1db31-4187-46e6-bff5-e1c4a9b82c2d-attr-1-type" class="er entityLabel">String</text><rect height="22" width="31.0858154296875" y="24" x="54.095550537109375" class="er attributeBoxOdd"/><text style="dominant-baseline: middle; font-size: 10.2px;" transform="translate(59.095550537109375,35)" y="0" x="0" id="text-entity-days-fed1db31-4187-46e6-bff5-e1c4a9b82c2d-attr-1-name" class="er entityLabel">id</text><rect height="22" width="21.68768310546875" y="24" x="85.18136596679688" class="er attributeBoxOdd"/><text style="dominant-baseline: middle; font-size: 10.2px;" transform="translate(90.18136596679688,35)" y="0" x="0" id="text-entity-days-fed1db31-4187-46e6-bff5-e1c4a9b82c2d-attr-1-key" class="er entityLabel">PK</text><rect height="22" width="54.095550537109375" y="46" x="0" class="er attributeBoxEven"/><text style="dominant-baseline: middle; font-size: 10.2px;" transform="translate(5,57)" y="0" x="0" id="text-entity-days-fed1db31-4187-46e6-bff5-e1c4a9b82c2d-attr-2-type" class="er entityLabel">DateTime</text><rect height="22" width="31.0858154296875" y="46" x="54.095550537109375" class="er attributeBoxEven"/><text style="dominant-baseline: middle; font-size: 10.2px;" transform="translate(59.095550537109375,57)" y="0" x="0" id="text-entity-days-fed1db31-4187-46e6-bff5-e1c4a9b82c2d-attr-2-name" class="er entityLabel">date</text><rect height="22" width="21.68768310546875" y="46" x="85.18136596679688" class="er attributeBoxEven"/><text style="dominant-baseline: middle; font-size: 10.2px;" transform="translate(90.18136596679688,57)" y="0" x="0" id="text-entity-days-fed1db31-4187-46e6-bff5-e1c4a9b82c2d-attr-2-key" class="er entityLabel"/></g><g transform="translate(297.37889099121094,31 )" id="entity-dayhabits-3d77f1c9-1a25-4c3f-959b-99d43b158b58"><rect height="46" width="100" y="0" x="0" class="er entityBox"/><text style="dominant-baseline: middle; text-anchor: middle; font-size: 12px;" transform="translate(50,12)" y="0" x="0" id="text-entity-dayhabits-3d77f1c9-1a25-4c3f-959b-99d43b158b58" class="er entityLabel">day_habits</text><rect height="22" width="44.260355631510414" y="24" x="0" class="er attributeBoxOdd"/><text style="dominant-baseline: middle; font-size: 10.2px;" transform="translate(5,35)" y="0" x="0" id="text-entity-dayhabits-3d77f1c9-1a25-4c3f-959b-99d43b158b58-attr-1-type" class="er entityLabel">String</text><rect height="22" width="26.322855631510418" y="24" x="44.260355631510414" class="er attributeBoxOdd"/><text style="dominant-baseline: middle; font-size: 10.2px;" transform="translate(49.260355631510414,35)" y="0" x="0" id="text-entity-dayhabits-3d77f1c9-1a25-4c3f-959b-99d43b158b58-attr-1-name" class="er entityLabel">id</text><rect height="22" width="29.416788736979168" y="24" x="70.58321126302083" class="er attributeBoxOdd"/><text style="dominant-baseline: middle; font-size: 10.2px;" transform="translate(75.58321126302083,35)" y="0" x="0" id="text-entity-dayhabits-3d77f1c9-1a25-4c3f-959b-99d43b158b58-attr-1-key" class="er entityLabel">PK</text></g><rect height="14" width="27.96875" y="133.108642578125" x="72.1260757446289" class="er relationshipLabelBox"/><text style="text-anchor: middle; dominant-baseline: middle; font-size: 12px;" y="140.108642578125" x="86.1104507446289" id="rel1" class="er relationshipLabel">habit</text><rect height="14" width="18.990234375" y="127.78829956054688" x="380.8271179199219" class="er relationshipLabelBox"/><text style="text-anchor: middle; dominant-baseline: middle; font-size: 12px;" y="134.78829956054688" x="390.3222351074219" id="rel2" class="er relationshipLabel">day</text><rect height="14" width="27.96875" y="123.67964172363281" x="233.63934326171875" class="er relationshipLabelBox"/><text style="text-anchor: middle; dominant-baseline: middle; font-size: 12px;" y="130.6796417236328" x="247.62371826171875" id="rel3" class="er relationshipLabel">habit</text></svg>