<svg width="141" height="68" viewBox="0 0 141 68" fill="none" xmlns="http://www.w3.org/2000/svg">
<path d="M10.9132 53.224V67.3885H3.00629V34.2733H10.6545V47.1119H10.9293C11.4899 45.5812 12.4062 44.3846 13.6782 43.5223C14.9609 42.6599 16.5294 42.2287 18.3835 42.2287C20.1298 42.2287 21.6497 42.6168 22.9433 43.3929C24.2368 44.1583 25.2394 45.2416 25.9508 46.643C26.6731 48.0443 27.0288 49.6829 27.018 51.5585V67.3885H19.1111V53.1108C19.1219 51.731 18.7769 50.653 18.0763 49.8769C17.3756 49.1008 16.3892 48.7127 15.1172 48.7127C14.2872 48.7127 13.5542 48.8959 12.9182 49.2624C12.293 49.6182 11.8025 50.1302 11.4468 50.7986C11.1018 51.4669 10.924 52.2754 10.9132 53.224Z" fill="white"/>
<path d="M38.9551 67.8089C37.3705 67.8089 35.9638 67.5448 34.7349 67.0166C33.5168 66.4776 32.552 65.6691 31.8406 64.5911C31.1399 63.5024 30.7895 62.1388 30.7895 60.5003C30.7895 59.1205 31.0321 57.9563 31.5172 57.0076C32.0023 56.059 32.6706 55.2883 33.5222 54.6954C34.3738 54.1025 35.3547 53.6552 36.465 53.3533C37.5753 53.0407 38.7611 52.8305 40.0223 52.7227C41.4345 52.5934 42.5717 52.4586 43.4341 52.3185C44.2965 52.1676 44.9217 51.9574 45.3098 51.6879C45.7086 51.4076 45.908 51.0141 45.908 50.5075V50.4267C45.908 49.5966 45.6224 48.9552 45.051 48.5025C44.4797 48.0497 43.709 47.8234 42.7388 47.8234C41.6932 47.8234 40.8524 48.0497 40.2164 48.5025C39.5804 48.9552 39.1761 49.5804 39.0037 50.3781L31.7112 50.1194C31.9268 48.6103 32.482 47.2628 33.3767 46.0771C34.2822 44.8805 35.5218 43.9427 37.0956 43.2636C38.6803 42.5737 40.5829 42.2287 42.8035 42.2287C44.3881 42.2287 45.8487 42.4174 47.1854 42.7946C48.5221 43.1612 49.6863 43.7001 50.678 44.4116C51.6698 45.1123 52.4351 45.9746 52.9741 46.9987C53.5239 48.0228 53.7988 49.1924 53.7988 50.5075V67.3885H46.3608V63.9282H46.1667C45.7248 64.769 45.1588 65.4805 44.4689 66.0626C43.7898 66.6447 42.9867 67.0812 42.0597 67.3723C41.1434 67.6633 40.1086 67.8089 38.9551 67.8089ZM41.3967 62.6346C42.2483 62.6346 43.0137 62.4622 43.6928 62.1172C44.3827 61.7723 44.9325 61.298 45.3421 60.6943C45.7517 60.0798 45.9565 59.3684 45.9565 58.5599V56.1992C45.7302 56.3177 45.4553 56.4255 45.1319 56.5226C44.8193 56.6196 44.4743 56.7112 44.097 56.7974C43.7198 56.8837 43.3317 56.9591 42.9328 57.0238C42.534 57.0885 42.1513 57.1478 41.7848 57.2017C41.041 57.3203 40.405 57.5035 39.8768 57.7514C39.3594 57.9994 38.9605 58.3228 38.6803 58.7216C38.4108 59.1097 38.276 59.5732 38.276 60.1122C38.276 60.9314 38.5671 61.5567 39.1492 61.9878C39.7421 62.419 40.4912 62.6346 41.3967 62.6346Z" fill="white"/>
<path d="M58.6334 67.3885V34.2733H66.5403V46.8047H66.702C67.0254 46.0501 67.4835 45.3225 68.0764 44.6218C68.6801 43.9211 69.4454 43.3498 70.3725 42.9078C71.3103 42.4551 72.4314 42.2287 73.7358 42.2287C75.4605 42.2287 77.0721 42.6815 78.5704 43.5869C80.0796 44.4924 81.2977 45.8884 82.2247 47.7749C83.1518 49.6613 83.6153 52.0652 83.6153 54.9865C83.6153 57.7999 83.168 60.1553 82.2733 62.0525C81.3893 63.9498 80.1928 65.3727 78.6836 66.3213C77.1852 67.2699 75.5198 67.7442 73.6872 67.7442C72.4368 67.7442 71.3534 67.5394 70.4372 67.1298C69.5209 66.7201 68.7502 66.1811 68.1249 65.5128C67.5105 64.8445 67.0362 64.1276 66.702 63.3623H66.4595V67.3885H58.6334ZM66.3786 54.9703C66.3786 56.307 66.5565 57.4712 66.9122 58.4629C67.2787 59.4546 67.8015 60.2254 68.4807 60.7751C69.1706 61.3141 69.9952 61.5836 70.9546 61.5836C71.9248 61.5836 72.7494 61.3141 73.4285 60.7751C74.1077 60.2254 74.6197 59.4546 74.9646 58.4629C75.3204 57.4712 75.4982 56.307 75.4982 54.9703C75.4982 53.6336 75.3204 52.4748 74.9646 51.4938C74.6197 50.5129 74.1077 49.7529 73.4285 49.2139C72.7602 48.675 71.9356 48.4055 70.9546 48.4055C69.9844 48.4055 69.1598 48.6696 68.4807 49.1978C67.8015 49.726 67.2787 50.4806 66.9122 51.4615C66.5565 52.4425 66.3786 53.612 66.3786 54.9703Z" fill="white"/>
<path d="M87.7588 67.3885V42.5521H95.6656V67.3885H87.7588ZM91.7203 39.6578C90.61 39.6578 89.656 39.2913 88.8583 38.5582C88.0606 37.8144 87.6617 36.9197 87.6617 35.8741C87.6617 34.8392 88.0606 33.9553 88.8583 33.2223C89.656 32.4785 90.61 32.1066 91.7203 32.1066C92.8414 32.1066 93.7954 32.4785 94.5823 33.2223C95.38 33.9553 95.7788 34.8392 95.7788 35.8741C95.7788 36.9197 95.38 37.8144 94.5823 38.5582C93.7954 39.2913 92.8414 39.6578 91.7203 39.6578Z" fill="white"/>
<path d="M114.717 42.5521V48.3731H99.0491V42.5521H114.717ZM102.332 36.6017H110.238V59.5786C110.238 60.0637 110.314 60.4571 110.465 60.759C110.626 61.05 110.858 61.2602 111.16 61.3896C111.462 61.5082 111.823 61.5674 112.243 61.5674C112.545 61.5674 112.863 61.5405 113.197 61.4866C113.542 61.4219 113.801 61.368 113.974 61.3249L115.17 67.0327C114.793 67.1405 114.259 67.2753 113.569 67.437C112.89 67.5987 112.076 67.7011 111.128 67.7442C109.274 67.8304 107.684 67.6148 106.358 67.0974C105.043 66.5692 104.035 65.75 103.334 64.6396C102.644 63.5293 102.31 62.1334 102.332 60.4517V36.6017Z" fill="white"/>
<path d="M140.124 50.1356L132.864 50.3296C132.788 49.8122 132.583 49.3541 132.249 48.9552C131.915 48.5456 131.478 48.2276 130.939 48.0012C130.411 47.7641 129.797 47.6455 129.096 47.6455C128.18 47.6455 127.398 47.8288 126.752 48.1953C126.116 48.5618 125.803 49.0576 125.814 49.6829C125.803 50.1679 125.997 50.5883 126.396 50.9441C126.805 51.2998 127.533 51.5855 128.579 51.8011L133.365 52.7066C135.844 53.1809 137.688 53.9678 138.895 55.0673C140.113 56.1668 140.727 57.6221 140.738 59.4331C140.727 61.1363 140.221 62.6185 139.218 63.8797C138.226 65.1409 136.868 66.1219 135.143 66.8225C133.419 67.5124 131.446 67.8574 129.225 67.8574C125.679 67.8574 122.882 67.1298 120.833 65.6745C118.796 64.2085 117.632 62.2466 117.341 59.7888L125.151 59.5948C125.323 60.5003 125.771 61.1902 126.493 61.6645C127.215 62.1388 128.137 62.3759 129.258 62.3759C130.271 62.3759 131.096 62.1873 131.732 61.81C132.368 61.4327 132.691 60.9314 132.702 60.3062C132.691 59.7457 132.443 59.2983 131.958 58.9642C131.473 58.6192 130.713 58.3497 129.678 58.1557L125.345 57.331C122.855 56.8783 121.001 56.0429 119.782 54.8248C118.564 53.5959 117.961 52.0328 117.971 50.1356C117.961 48.4755 118.403 47.058 119.297 45.883C120.192 44.6973 121.464 43.7918 123.113 43.1665C124.763 42.5413 126.708 42.2287 128.951 42.2287C132.314 42.2287 134.966 42.9348 136.906 44.3469C138.846 45.7483 139.919 47.6778 140.124 50.1356Z" fill="white"/>
<rect x="0.974306" y="0.511369" width="14.2292" height="14.2292" rx="3.32014" fill="#18181B" stroke="#27272A" stroke-width="0.948611"/>
<rect x="19.9465" y="0.511369" width="14.2292" height="14.2292" rx="3.32014" fill="#1E3A8A" stroke="#1D4ED8" stroke-width="0.948611"/>
<rect x="38.9188" y="0.511369" width="14.2292" height="14.2292" rx="3.32014" fill="#1E40AF" stroke="#2563EB" stroke-width="0.948611"/>
<rect x="57.891" y="0.511369" width="14.2292" height="14.2292" rx="3.32014" fill="#1D4ED8" stroke="#3B82F6" stroke-width="0.948611"/>
<rect x="76.8632" y="0.511369" width="14.2292" height="14.2292" rx="3.32014" fill="#2563EB" stroke="#60A5FA" stroke-width="0.948611"/>
<rect x="95.8354" y="0.511369" width="14.2292" height="14.2292" rx="3.32014" fill="#3B82F6" stroke="#C4B5FD" stroke-width="0.948611"/>
</svg>
